<svg
  viewBox="0 0 64 64"
  xmlns="http://www.w3.org/2000/svg"
  xmlns:xlink="http://www.w3.org/1999/xlink"
>
  <title>Apache HTTP Server</title>
  <linearGradient
    id="a"
    gradientTransform="matrix(.07854 -.16843 -.16843 -.07854 851.5392 -1276.19485)"
    gradientUnits="userSpaceOnUse"
    x1="-8095.52747"
    x2="-8046.88293"
    y1="1042.63305"
    y2="985.75213"
  >
    <stop offset="0" stop-color="#f59723" />
    <stop offset=".3123" stop-color="#f69822" />
    <stop offset=".8383" stop-color="#e87726" />
  </linearGradient>
  <linearGradient
    id="b"
    gradientTransform="matrix(.07854 -.16843 -.16843 -.07854 851.5392 -1276.19485)"
    gradientUnits="userSpaceOnUse"
    x1="-8455.63086"
    x2="-8108.58154"
    y1="1048.78229"
    y2="1048.78229"
  >
    <stop offset=".3233" stop-color="#9c2063" />
    <stop offset=".6302" stop-color="#c82037" />
    <stop offset=".7514" stop-color="#cc2135" />
    <stop offset="1" stop-color="#e87726" />
  </linearGradient>
  <linearGradient
    id="c"
    gradientTransform="matrix(.07854 -.16843 -.16843 -.07854 851.5392 -1276.19485)"
    gradientUnits="userSpaceOnUse"
    x1="-8413.7373"
    x2="-8206.92969"
    y1="1013.97836"
    y2="1013.97836"
  >
    <stop offset="0" stop-color="#282661" />
    <stop offset=".09548" stop-color="#662e8c" />
    <stop offset=".7882" stop-color="#9e2064" />
    <stop offset=".9487" stop-color="#cc2032" />
  </linearGradient>
  <linearGradient
    id="d"
    x1="-8436.13867"
    x2="-8089.08936"
    xlink:href="#b"
    y1="1052.04322"
    y2="1052.04322"
  />
  <linearGradient
    id="e"
    x1="-8410.82813"
    x2="-8228.44336"
    xlink:href="#c"
    y1="1047.31117"
    y2="1047.31117"
  />
  <linearGradient
    id="f"
    x1="-8436.13867"
    x2="-8089.08936"
    xlink:href="#b"
    y1="1016.11605"
    y2="1016.11605"
  />
  <linearGradient
    id="g"
    x1="-8457.66797"
    x2="-8110.61768"
    xlink:href="#b"
    y1="1017.90324"
    y2="1017.90324"
  />
  <path
    d="m43.26112.30285a23.30025 23.30025 0 0 0 -4.65906 4.70349l1.82585 3.45166a45.69211 45.69211 0 0 1 3.90353-4.89978c.1037-.11111.15184-.163.15184-.163-.04814.05184-.1037.1111-.15184.163a40.49429 40.49429 0 0 0 -3.6665 4.97015 69.12834 69.12834 0 0 0 7.11079-.87774c.70367-3.922-.68516-5.71456-.68516-5.71456s-1.76288-2.85168-3.82945-1.63322z"
    fill="url(#a)"
  />
  <path
    d="m35.03556 17.37987q.8333-1.56105 1.68511-3.04061.88329-1.54437 1.79251-2.985c.03333-.05555.07407-.11481.1074-.17036.59627-.94441 1.2-1.85548 1.80363-2.7221l-1.82585-3.4517c-.137.16666-.27406.337-.41479.51479q-.79442.98885-1.637 2.11472c-.6333.84441-1.28143 1.74807-1.94436 2.69618-.60738.874-1.22958 1.7888-1.85176 2.74061q-.79445 1.21106-1.58145 2.48878c-.01852.02963-.037.063-.05556.09629l2.38138 4.7035c.50375-1.01853 1.02224-2.01478 1.54074-2.9851z"
    fill="url(#b)"
  />
  <path
    d="m24.1916 43.86757c-.3148.86292-.63331 1.74807-.94811 2.648a.15484.15484 0 0 1 -.01481.037c-.04444.12592-.09259.25555-.13333.38147-.2148.60738-.4 1.15549-.82589 2.39619a4.82329 4.82329 0 0 1 1.79622 2.11842 3.81532 3.81532 0 0 0 -1.24439-2.63692c3.4554.15555 6.433-.71849 7.97372-3.24431a6.5097 6.5097 0 0 0 .37776-.71477 3.32588 3.32588 0 0 1 -3.20356 1.174l-.01111.0037.01111-.0037a9.3086 9.3086 0 0 0 4.68127-3.822c.25184-.40739.5-.84811.75182-1.34068a7.52877 7.52877 0 0 1 -7.10339 2.30731l-1.92584.2111c-.06296.16298-.11851.32223-.18147.48519z"
    fill="url(#c)"
  />
  <path
    d="m25.09156 39.56035q.6222-1.611 1.28142-3.25911.63332-1.57773 1.29624-3.17023c.44443-1.05921.89626-2.12953 1.3555-3.19615q.7-1.62771 1.44067-3.2443.72776-1.59993 1.474-3.17023c.17777-.37776.363-.75552.54442-1.12958q.47219-.97218.95551-1.92954c.01852-.03333.03332-.07037.05185-.1037l-2.38136-4.70351c-.037.063-.07778.12962-.11852.18888q-.83331 1.361-1.64807 2.77765-.82218 1.43325-1.611 2.91839c-.44072.83329-.874 1.67029-1.29994 2.52211-.08518.17036-.16666.34442-.25184.51479-.5185 1.07032-.98514 2.0962-1.411 3.09245q-.72228 1.68327-1.27044 3.21473c-.24444.67034-.46294 1.31475-.66664 1.93695-.16666.52961-.32221 1.06292-.47776 1.59252q-.53331 1.86659-.91477 3.72576l2.39249 4.722c.3148-.8444.64071-1.70362.974-2.57025.10006-.24817.18895-.4926.28524-.72963z"
    fill="url(#d)"
  />
  <path
    d="m21.414 38.29745a36.65039 36.65039 0 0 0 -.6222 4.51091l-.01111.15554a9.47349 9.47349 0 0 0 -2.74069-2.35174 13.254 13.254 0 0 1 2.67766 6.15528 6.0696 6.0696 0 0 1 -3.02579-.5148 6.07323 6.07323 0 0 0 2.58507 1.5703 7.42467 7.42467 0 0 0 -3.58873 1.78882 7.67938 7.67938 0 0 1 4.25166-.78145c-1.63694 4.62942-3.27387 9.7403-4.91457 15.16969a1.42731 1.42731 0 0 0 .97033-.9444c.29257-.98144 2.22952-7.433 5.27013-15.903.08888-.24073.17407-.48517.263-.7259.02222-.07037.04815-.137.07407-.2.31851-.88885.65553-1.79622.99625-2.7221.07778-.2111.15555-.4222.237-.6333l.0037-.01112-2.39619-4.722c-.00742.04816-.01853.10371-.02959.15927z"
    fill="url(#e)"
  />
  <path
    d="m33.86154 20.75008c-.07037.14074-.137.28147-.2074.42221-.2074.42591-.4148.85922-.6296 1.30364-.22962.48146-.45924.97033-.69257 1.474q-.17777.37776-.35554.76664-.53331 1.16106-1.08143 2.39989c-.44813 1.01106-.91107 2.06657-1.374 3.16282-.44072 1.0444-.89626 2.12213-1.34809 3.2406q-.65 1.58883-1.31476 3.28133c-.39627 1.00366-.79626 2.04065-1.19624 3.10356-.01852.04815-.037.1037-.05555.15186q-.6 1.58325-1.20735 3.2517c-.00741.02593-.01852.04815-.02593.07777l1.92584-.2111c-.037-.00741-.07777-.01111-.11481-.01852a13.71056 13.71056 0 0 0 7.33671-4.12948 18.157 18.157 0 0 0 2.49989-3.485 30.876 30.876 0 0 0 1.61474-3.35541q.66663-1.61658 1.28142-3.511a6.9645 6.9645 0 0 1 -1.79992.6259c-.11851.02592-.237.04814-.35924.07037s-.24443.04074-.37035.05555l.0037-.0037a8.36269 8.36269 0 0 0 4.48128-4.37018 7.57868 7.57868 0 0 1 -2.58134 1.12965c-.14814.03333-.3.05926-.45553.08518-.037.00371-.07777.01111-.11481.01852h.00734a8.64577 8.64577 0 0 0 1.91843-1.074 4.16636 4.16636 0 0 0 .337-.27406c.16666-.14444.32221-.29628.47776-.45183.09629-.1037.18888-.2074.28146-.3148a7.2573 7.2573 0 0 0 .6-.82589c.05555-.09259.11481-.18147.16666-.27776.07407-.137.14073-.27407.20739-.40369.3-.6.54072-1.14069.7296-1.611.09629-.237.17777-.45183.25184-.65923.02963-.08148.05556-.15925.08148-.237.07777-.22591.137-.4259.18518-.60367a5.32433 5.32433 0 0 0 .14073-.6296 2.47406 2.47406 0 0 1 -.25184.17036 9.07126 9.07126 0 0 1 -2.65544.90366l1.76659-.19258-1.76659.19258c-.01111.0037-.02592.0037-.04073.00741-.09259.01481-.17777.02963-.27036.04074l.04444-.02222-6.04788.66293a.18439.18439 0 0 1 -.02222.063z"
    fill="url(#f)"
  />
  <path
    d="m40.66864 8.52841c-.537.82589-1.12217 1.76288-1.75918 2.8258-.03333.05185-.07037.11481-.1.16666-.54441.91847-1.12217 1.92584-1.737 3.03319-.5259.95552-1.074 1.97769-1.64437 3.07765q-.7444 1.43881-1.537 3.05541l6.04788-.66293a7.31206 7.31206 0 0 0 3.31103-2.60359c.2-.29258.40739-.59627.60738-.91477.6222-.97033 1.22958-2.03695 1.774-3.09986a31.7851 31.7851 0 0 0 1.34438-2.95913 15.2325 15.2325 0 0 0 .53331-1.59993c.11111-.4185.19629-.81848.26295-1.19994a67.9492 67.9492 0 0 1 -7.10338.88144z"
    fill="url(#g)"
  />
</svg>
