<svg
  clip-rule="evenodd"
  fill-rule="evenodd"
  stroke-linejoin="round"
  stroke-miterlimit="2"
  viewBox="0 0 80 80"
  xmlns="http://www.w3.org/2000/svg"
>
  <title>Cloudflare</title>
  <g fill-rule="nonzero">
    <path
      d="m53.634 56.471.378-1.329c.459-1.573.288-3.038-.477-4.105-.702-.986-1.872-1.564-3.294-1.637l-26.908-.344c-.18-.009-.333-.09-.423-.226s-.117-.317-.054-.488c.09-.262.351-.47.621-.479l27.15-.344c3.222-.145 6.705-2.776 7.928-5.977l1.548-4.069c.045-.108.063-.226.063-.344 0-.063-.009-.127-.018-.19-1.746-7.948-8.81-13.889-17.242-13.889-7.775 0-14.381 5.046-16.747 12.054-1.53-1.148-3.483-1.763-5.589-1.555-3.735.371-6.731 3.391-7.1 7.144-.099.977-.018 1.908.207 2.794-6.092.181-10.979 5.199-10.979 11.357 0 .561.045 1.103.117 1.646.036.262.261.452.522.452l49.666.009h.018c.279-.009.531-.199.612-.479z"
      fill="#f6821f"
    />
    <path
      d="m62.597 37.773c-.252 0-.495.009-.747.018-.045 0-.081.009-.117.027-.126.045-.234.154-.27.289l-1.062 3.671c-.459 1.573-.288 3.038.477 4.105.702.986 1.872 1.564 3.294 1.637l5.733.344c.171.009.315.09.405.226.099.136.117.316.063.488-.09.262-.351.47-.621.479l-5.958.344c-3.231.154-6.722 2.776-7.946 5.977l-.432 1.13c-.081.208.072.425.279.434h20.527c.243 0 .459-.163.531-.398.36-1.275.549-2.613.549-4.006 0-8.147-6.587-14.766-14.705-14.766z"
      fill="#fbad41"
    />
  </g>
</svg>
