<svg viewBox="0 0 112 101" xmlns="http://www.w3.org/2000/svg">
  <title>React Native</title>
  <path
    d="m20.218369 71.03910004c-3.23041542-1.2514288-6.13730521-2.66607245-8.65637235-4.21248718-7.42592535-4.55865593-11.56199665-10.36116599-11.56199665-16.44662778 0-6.08546178 4.1360713-11.88797184 11.56199665-16.44662777 2.51902081-1.54638629 5.42585001-2.96100635 8.65619412-4.21241813-.53135078-3.4231935-.75960563-6.64781399-.67984369-9.60246312.23513517-8.71019337 3.19240997-15.193178 8.46289072-18.23574068 5.26968657-3.04289416 12.36255585-2.36258173 20.023242 1.78886191 2.59867954 1.4082644 5.27716484 3.21828454 7.97607103 5.39011263 2.69876068-2.17167281 5.37710576-3.98159614 7.97567816-5.38981856 7.66081711-4.151562 14.75401512-4.83209969 20.02458919-1.78912365 5.27008339 3.04295781 8.22709142 9.5259023 8.46198867 18.23592369.07968203 2.95462062-.14865564 6.17920528-.68009965 9.60237439 3.23015283 1.25138573 6.13680576 2.66596887 8.65567822 4.21230998 7.42570591 4.5586565 11.56161458 10.36114676 11.56161458 16.44660931 0 6.08546256-4.13590867 11.88795282-11.56161458 16.44660932-2.51886395 1.54633588-5.42550576 2.96091469-8.65564549 4.2122973.53132657 3.42294357.7595818 6.64735815.67984962 9.60185919-.23506159 8.71028074-3.19233101 15.19355273-8.46288452 18.2365169-5.2700843 3.04249923-12.36302963 2.36189165-20.0237002-1.7896254-2.59862439-1.4082623-5.27704182-3.21824037-7.97588562-5.38998883-2.69864817 2.17158854-5.37689379 3.98146743-7.97538106 5.38968837-7.66069691 4.15162849-14.75392304 4.83241164-20.02458396 1.78984458-5.26958733-3.04293647-8.22656786-9.52605041-8.46159201-18.23615764-.0797212-2.95450597.14851646-6.17894162.67980682-9.60192883zm1.03250377-36.00470155c-2.54624536 1.0383531-4.8590412 2.19171107-6.89881342 3.44389437-5.5158714 3.38610458-9.01905935 7.38149803-9.01905935 11.90169222 0 4.5201942 3.50318795 8.51558765 9.01905935 11.90169223 2.03980817 1.25220537 4.35264957 2.40558191 6.89894802 3.44394926 1.12994282-4.87653441 2.80994099-10.05063191 5.02784851-15.34559442-2.21793631-5.294957-3.89799082-10.46907324-5.02798311-15.34563366zm30.66445173-22.42160734c-2.17232167-1.68589274-4.3275109-3.11209099-6.4317643-4.25241827-5.69011934-3.08356317-10.90158341-4.11941118-14.81587694-1.85909252-3.91485495 2.25990799-5.62362397 7.2913277-5.79827834 13.76110975-.06458643 2.39249755.09292003 4.97202524.46674216 7.69622428 4.78812248-1.45957631 10.10891511-2.59157596 15.80326739-3.31818728 3.47666454-4.56846653 7.11761658-8.61064708 10.77591003-12.02763596zm34.74946146 15.3459002c.37390399-2.72420555.53148154-5.3037313.46695919-7.69622858-.17447806-6.46967016-1.88302351-11.50096924-5.79753737-13.76124532-3.91489864-2.26024711-9.12666922-1.22429553-14.81703677 1.85943736-2.1041618 1.14029065-4.25923504 2.56640782-6.43143404 4.25217496 3.6581626 3.41694841 7.29897256 7.45909091 10.77545139 12.02755681 5.69451416.72662262 11.01541662 1.85866437 15.8035976 3.31830477zm4.0852319 37.76674153c2.54603231-1.03831184 4.85863522-2.19161654 6.89824472-3.44373711 5.51570645-3.38610381 9.01873742-7.38151753 9.01873742-11.90171069s-3.50303097-8.51560688-9.01873742-11.90171068c-2.03964638-1.25214321-4.35229603-2.40546698-6.89838282-3.44379343-1.13009095 4.87636401-2.81022839 10.05029978-5.02825182 15.3451541 2.21813902 5.29498423 3.89832631 10.46916024 5.02838992 15.34579781zm-30.66467482 22.42113111c2.17227151 1.68583104 4.3274089 3.11199688 6.43162013 4.25232379 5.69022662 3.08368213 10.90176326 4.119727 14.81632335 1.85981948 3.91488403-2.26029292 5.62364217-7.29190123 5.79824393-13.76182398.06456112-2.39233226-.09294345-4.97165048-.46673995-7.69560585-4.78834461 1.4596906-10.10944724 2.59176012-15.80418174 3.31838011-3.47642872 4.56815061-7.11716408 8.61008484-10.77526572 12.02690645zm-34.74900261-15.34514927c-.37377638 2.72402426-.53127178 5.30339529-.46671861 7.69576658.17457336 6.46977239 1.88301148 11.501218 5.79714348 13.76155587 3.91491676 2.25983119 9.126669 1.22366888 14.81696855-1.86012493 2.10407873-1.14028179 4.2590597-2.56635634 6.43115825-4.25205024-3.6581134-3.4168255-7.29889899-7.4587849-10.77542064-12.02701167-5.69429712-.72660126-11.01504268-1.8585829-15.80313103-3.31813561zm11.51744314-42.12922469c-3.75967341.66744626-7.30156412 1.52709154-10.56453624 2.55393994.74217383 3.33930325 1.7686251 6.83657288 3.07042767 10.42636218 1.09303865-2.19815029 2.27550806-4.40412233 3.54657304-6.60576535 1.27116735-2.20167081 2.5903808-4.32878349 3.94753553-6.37453677zm-7.49407205 26.43538237c-1.30176798 3.58978039-2.32817734 7.0870316-3.07031533 10.42631464 3.26293554 1.02682913 6.80478104 1.88645939 10.56440314 2.5538959-1.35716621-2.04575785-2.6763917-4.1728822-3.94757089-6.37457352-1.27103603-2.20159286-2.45348751-4.40752251-3.54651692-6.60563702zm34.13519961-33.16273892c-2.45797075-2.92253239-4.97351504-5.5602862-7.49440062-7.87281536-2.52096154 2.31254235-5.03658541 4.95030417-7.49465438 7.87282851 2.45037462-.15245672 4.95223777-.23136155 7.49464387-.23136155 2.54233265 0 5.04411749.0789003 7.49441113.2313484zm19.1458327 19.70777784c1.30194181-3.58984711 2.32851175-7.08713936 3.0707897-10.42644676-3.26309729-1.02691614-6.80515394-1.88660848-10.5650291-2.55407657 1.3570733 2.04578279 2.67619528 4.17293515 3.94725865 6.37465808 1.27121022 2.20166236 2.45381615 4.40766891 3.54698075 6.60586525zm-7.49455146 26.43532626c3.76003845-.66748431 7.30224255-1.52720901 10.56546408-2.55417066-.74225325-3.3395048-1.76884202-6.83698391-3.07084146-10.42697585-1.09318598 2.19836129-2.27581689 4.40455868-3.54705626 6.60644057-1.27116527 2.20173041-2.59038984 4.3288999-3.94756636 6.37470594zm-26.64023531 6.72719223c2.45791493 2.92229413 4.97337188 5.55985303 7.4941591 7.87223716 2.52077693-2.31237947 5.03620499-4.94992437 7.49407208-7.87218531-2.4500628.15241865-4.95160561.23130342-7.49368824.23130342-2.54237119 0-5.04420055-.07890265-7.49454294-.23135527zm-4.46677406-47.15215478c-2.26926179 3.12320789-4.45606706 6.48517019-6.51442124 10.05025136-2.05824014 3.56513133-3.87632479 7.13994531-5.44640198 10.66679034 1.57009532 3.52683841 3.3881839 7.10163393 5.44640198 10.66672705 2.05836665 3.56510276 4.24518629 6.9270637 6.51446043 10.05025548 3.8395142.4036487 7.84456372.61648582 11.96127781.61648582 4.11640057 0 8.12113335-.2128046 11.96034553-.61639341 2.26928298-3.12324365 4.45608767-6.48524953 6.51441008-10.05037797 2.0583673-3.56524928 3.87658327-7.14014015 5.44678974-10.66703116-1.57021365-3.52677754-3.38844341-7.10149545-5.44682822-10.66649272-2.05814661-3.56510626-4.24477801-6.92706795-6.51388871-10.05026056-3.83935927-.40362173-7.84425526-.61644418-11.96082842-.61644418-4.1167281 0-8.12179086.21283858-11.961317.61648995zm11.961317 31.38401005c-5.892 0-10.666-4.776-10.666-10.667s4.776-10.667 10.666-10.667 10.667 4.776 10.667 10.667-4.776 10.667-10.667 10.667z"
    fill="#58c4dc"
  />
</svg>
